<svg width="36" height="36" viewBox="0 0 36 36" fill="none" xmlns="http://www.w3.org/2000/svg">
  <defs>
    <linearGradient id="logoGradient" x1="0%" y1="0%" x2="100%" y2="100%">
      <stop offset="0%" style="stop-color:#fb923c;stop-opacity:1" />
      <stop offset="100%" style="stop-color:#f97316;stop-opacity:1" />
    </linearGradient>
  </defs>
  <!-- Rounded rectangle background with shadow -->
  <rect width="36" height="36" rx="8" fill="url(#logoGradient)"/>
  <!-- Flame icon (Lucide Flame - centered) -->
  <g transform="translate(8, 8)">
    <!-- Main flame body -->
    <path d="M8 12C8 8 10 6 12 6C14 6 16 8 16 12C16 16 14 18 12 18C10 18 8 16 8 12Z" fill="white"/>
    <!-- Left flame -->
    <path d="M6 10C6 8 7 7 8 7C9 7 10 8 10 10C10 12 9 13 8 13C7 13 6 12 6 10Z" fill="white" opacity="0.9"/>
    <!-- Right flame -->
    <path d="M14 10C14 8 15 7 16 7C17 7 18 8 18 10C18 12 17 13 16 13C15 13 14 12 14 10Z" fill="white" opacity="0.9"/>
    <!-- Bottom flame tip -->
    <path d="M10 18L12 20L14 18" stroke="white" stroke-width="1.5" stroke-linecap="round" stroke-linejoin="round" fill="none"/>
  </g>
</svg>
